<svg width="1440" height="926" viewBox="0 0 1440 926" fill="none" xmlns="http://www.w3.org/2000/svg">
<rect width="1440" height="926" fill="white"/>
<path d="M157.112 572.206C156.753 573.539 157.544 574.911 158.877 575.269C160.211 575.627 161.582 574.837 161.94 573.503L157.112 572.206ZM163.933 556.454L164.579 554.039L162.167 553.394L161.519 555.805L163.933 556.454ZM178.934 560.462L178.289 562.877L180.701 563.521L181.348 561.111L178.934 560.462ZM182.964 545.467L183.609 543.051L181.197 542.407L180.549 544.818L182.964 545.467ZM199.371 549.85L198.725 552.266L201.137 552.91L201.785 550.499L199.371 549.85ZM203.778 533.45L204.423 531.034L202.011 530.39L201.364 532.801L203.778 533.45ZM218.779 537.457L218.133 539.873L220.545 540.517L221.193 538.106L218.779 537.457ZM225.223 523.111C225.581 521.778 224.79 520.406 223.457 520.048C222.124 519.69 220.752 520.48 220.394 521.814L225.223 523.111ZM161.94 573.503L166.348 557.103L161.519 555.805L157.112 572.206L161.94 573.503ZM163.288 558.869L178.289 562.877L179.579 558.047L164.579 554.039L163.288 558.869ZM181.348 561.111L185.378 546.115L180.549 544.818L176.52 559.813L181.348 561.111ZM182.318 547.882L198.725 552.266L200.016 547.435L183.609 543.051L182.318 547.882ZM201.785 550.499L206.192 534.098L201.364 532.801L196.956 549.202L201.785 550.499ZM203.133 535.865L218.133 539.873L219.424 535.042L204.423 531.034L203.133 535.865ZM221.193 538.106L225.223 523.111L220.394 521.814L216.364 536.809L221.193 538.106Z" fill="#FFCBC9"/>
<path d="M166.112 587.794C165.753 589.128 166.544 590.499 167.877 590.858C169.211 591.216 170.582 590.425 170.94 589.092L166.112 587.794ZM172.933 572.042L173.579 569.627L171.167 568.983L170.519 571.394L172.933 572.042ZM187.934 576.05L187.289 578.466L189.701 579.11L190.348 576.699L187.934 576.05ZM191.964 561.055L192.609 558.64L190.197 557.995L189.549 560.406L191.964 561.055ZM208.371 565.439L207.725 567.854L210.137 568.499L210.785 566.088L208.371 565.439ZM212.778 549.038L213.423 546.623L211.011 545.978L210.364 548.389L212.778 549.038ZM227.779 553.046L227.133 555.461L229.545 556.106L230.193 553.695L227.779 553.046ZM234.223 538.7C234.581 537.366 233.79 535.995 232.457 535.637C231.124 535.278 229.752 536.069 229.394 537.402L234.223 538.7ZM170.94 589.092L175.348 572.691L170.519 571.394L166.112 587.794L170.94 589.092ZM172.288 574.458L187.289 578.466L188.579 573.635L173.579 569.627L172.288 574.458ZM190.348 576.699L194.378 561.704L189.549 560.406L185.52 575.401L190.348 576.699ZM191.318 563.47L207.725 567.854L209.016 563.024L192.609 558.64L191.318 563.47ZM210.785 566.088L215.192 549.687L210.364 548.389L205.956 564.79L210.785 566.088ZM212.133 551.453L227.133 555.461L228.424 550.631L213.423 546.623L212.133 551.453ZM230.193 553.695L234.223 538.7L229.394 537.402L225.364 552.397L230.193 553.695Z" fill="#FFCBC9"/>
<path d="M61.9242 858.99C62.8067 860.052 64.3829 860.198 65.4448 859.315C66.5067 858.433 66.6522 856.856 65.7697 855.795L61.9242 858.99ZM101.112 813.938L99.1048 815.428L99.1803 815.529L99.2656 815.623L101.112 813.938ZM71.8695 829.528L74.2108 830.405L74.2108 830.405L71.8695 829.528ZM92.354 824.768L94.7465 824.043L92.354 824.768ZM84.7974 831.632C84.8206 830.252 83.7203 829.114 82.3398 829.091C80.9593 829.067 79.8213 830.168 79.7981 831.548L84.7974 831.632ZM65.7697 855.795C62.1854 851.481 57.8744 844.123 56.5648 836.199C55.2789 828.42 56.8692 820.176 64.9379 813.418L61.7272 809.585C52.0505 817.69 50.1154 827.841 51.6317 837.015C53.1242 846.045 57.9432 854.2 61.9242 858.99L65.7697 855.795ZM64.9379 813.418C73.2627 806.445 80.607 805.561 86.3392 806.948C92.2278 808.373 96.7726 812.285 99.1048 815.428L103.12 812.448C100.253 808.585 94.7803 803.847 87.5152 802.089C80.0937 800.293 71.1477 801.694 61.7272 809.585L64.9379 813.418ZM99.2656 815.623C101.335 817.891 103.791 822.198 103.841 826.895C103.888 831.335 101.793 836.639 93.7918 841.258L96.2918 845.588C105.612 840.208 108.909 833.353 108.841 826.842C108.774 820.588 105.605 815.153 102.959 812.253L99.2656 815.623ZM93.7918 841.258C85.9153 845.806 80.3401 844.677 77.2102 842.1C73.9152 839.387 72.6422 834.594 74.2108 830.405L69.5283 828.651C67.2357 834.774 69.0335 841.845 74.0323 845.96C79.1962 850.211 87.1378 850.874 96.2918 845.588L93.7918 841.258ZM74.2108 830.405C74.7149 829.058 75.8448 827.32 77.4208 825.65C78.985 823.992 80.8322 822.568 82.6211 821.734C84.4404 820.885 85.8781 820.782 86.9026 821.176C87.8473 821.539 89.0763 822.573 89.9615 825.493L94.7465 824.043C93.5896 820.226 91.565 817.611 88.6958 816.509C85.9065 815.437 82.9701 816.053 80.5067 817.203C78.013 818.366 75.6687 820.221 73.7843 822.218C71.9117 824.203 70.3358 826.495 69.5283 828.651L74.2108 830.405ZM89.9615 825.493C90.8778 828.516 90.6418 830.334 90.2033 831.332C89.7913 832.269 89.0749 832.78 88.2212 832.991C87.3002 833.219 86.2995 833.066 85.5999 832.684C84.9281 832.318 84.7925 831.924 84.7974 831.632L79.7981 831.548C79.754 834.171 81.3614 836.067 83.2041 837.073C85.019 838.064 87.3043 838.368 89.4201 837.845C91.6032 837.306 93.6746 835.86 94.7805 833.344C95.86 830.889 95.8722 827.757 94.7465 824.043L89.9615 825.493Z" fill="#FFCBC9"/>
<path d="M108.474 300.41L111.064 294.749L96.9166 288.582C95.4891 291.703 96.8819 295.348 100.032 296.736L108.474 300.41V300.41ZM117.415 294.006C120.048 294.171 122.924 292.247 124.379 289.066C126.126 285.245 125.16 281.09 122.197 279.796C119.253 278.511 115.436 280.564 113.673 284.391C112.218 287.572 112.669 290.949 114.552 292.755L105.621 312.281L108.463 313.523L114.779 299.767L128.65 305.825L129.94 303.004L116.069 296.946L117.415 294.006V294.006Z" fill="#FFCBC9"/>
<path d="M212.687 104.986C210.329 107.179 206.908 108.265 203.251 107.841L201.114 107.599L200.285 109.152L194.688 106.163L195.517 104.61L194.114 102.961C191.727 100.158 190.726 96.7109 191.238 93.5313L212.687 104.986ZM224.928 89.944L198.255 79.2788L192.27 90.4863L189.472 88.9919C186.715 94.155 187.802 100.436 191.703 105.018L190.395 107.467L201.589 113.445L202.896 110.996C208.874 111.689 214.699 109.099 217.456 103.936L201.365 95.3431L204.354 89.7464L220.445 98.3392L221.565 96.2404L205.475 87.6476L206.76 85.241L223.799 92.0568L224.928 89.944ZM201.977 85.7796L203.053 83.7647L204.534 84.358L203.376 86.5268L201.977 85.7796ZM198.479 83.9116L199.345 82.2885L200.827 82.8818L199.878 84.6588L198.479 83.9116ZM197.867 93.4751L200.856 87.8784L202.255 88.6256L199.266 94.2223L197.867 93.4751ZM194.369 91.6071L197.358 86.0104L198.757 86.7576L195.768 92.3543L194.369 91.6071Z" fill="#FFCBC9"/>
<path d="M1275.93 82.977C1277.26 83.3334 1278.05 84.7037 1277.7 86.0376C1277.34 87.3715 1275.97 88.164 1274.64 87.8076L1275.93 82.977ZM1258.88 81.0086L1256.46 80.3598L1257.11 77.9489L1259.52 78.5933L1258.88 81.0086ZM1254.85 96.0037L1257.26 96.6525L1256.61 99.0634L1254.2 98.419L1254.85 96.0037ZM1239.84 91.9957L1237.43 91.3469L1238.08 88.936L1240.49 89.5804L1239.84 91.9957ZM1235.44 108.397L1237.85 109.045L1237.2 111.456L1234.79 110.812L1235.44 108.397ZM1219.03 104.013L1216.62 103.364L1217.26 100.953L1219.68 101.598L1219.03 104.013ZM1215 119.008L1217.42 119.657L1216.77 122.068L1214.36 121.423L1215 119.008ZM1199.35 117.415C1198.02 117.059 1197.23 115.689 1197.58 114.355C1197.94 113.021 1199.31 112.228 1200.65 112.585L1199.35 117.415ZM1274.64 87.8076L1258.23 83.4239L1259.52 78.5933L1275.93 82.977L1274.64 87.8076ZM1261.29 81.6574L1257.26 96.6525L1252.43 95.3549L1256.46 80.3598L1261.29 81.6574ZM1254.2 98.419L1239.2 94.411L1240.49 89.5804L1255.49 93.5884L1254.2 98.419ZM1242.26 92.6445L1237.85 109.045L1233.02 107.748L1237.43 91.3469L1242.26 92.6445ZM1234.79 110.812L1218.39 106.428L1219.68 101.598L1236.08 105.981L1234.79 110.812ZM1221.44 104.662L1217.42 119.657L1212.59 118.359L1216.62 103.364L1221.44 104.662ZM1214.36 121.423L1199.35 117.415L1200.65 112.585L1215.65 116.593L1214.36 121.423Z" fill="#FFCBC9"/>
<path d="M1284.93 98.5656C1286.26 98.922 1287.05 100.292 1286.7 101.626C1286.34 102.96 1284.97 103.753 1283.64 103.396L1284.93 98.5656ZM1267.88 96.5971L1265.46 95.9483L1266.11 93.5374L1268.52 94.1818L1267.88 96.5971ZM1263.85 111.592L1266.26 112.241L1265.61 114.652L1263.2 114.007L1263.85 111.592ZM1248.84 107.584L1246.43 106.935L1247.08 104.525L1249.49 105.169L1248.84 107.584ZM1244.44 123.985L1246.85 124.634L1246.2 127.045L1243.79 126.4L1244.44 123.985ZM1228.03 119.601L1225.62 118.953L1226.26 116.542L1228.68 117.186L1228.03 119.601ZM1224 134.597L1226.42 135.245L1225.77 137.656L1223.36 137.012L1224 134.597ZM1208.35 133.004C1207.02 132.647 1206.23 131.277 1206.58 129.943C1206.94 128.609 1208.31 127.817 1209.65 128.173L1208.35 133.004ZM1283.64 103.396L1267.23 99.0124L1268.52 94.1818L1284.93 98.5656L1283.64 103.396ZM1270.29 97.2459L1266.26 112.241L1261.43 110.943L1265.46 95.9483L1270.29 97.2459ZM1263.2 114.007L1248.2 110L1249.49 105.169L1264.49 109.177L1263.2 114.007ZM1251.26 108.233L1246.85 124.634L1242.02 123.336L1246.43 106.935L1251.26 108.233ZM1243.79 126.4L1227.39 122.017L1228.68 117.186L1245.08 121.57L1243.79 126.4ZM1230.44 120.25L1226.42 135.245L1221.59 133.948L1225.62 118.953L1230.44 120.25ZM1223.36 137.012L1208.35 133.004L1209.65 128.173L1224.65 132.181L1223.36 137.012Z" fill="#FFCBC9"/>
<path d="M1325.01 313.486C1324.41 312.244 1324.93 310.748 1326.17 310.145C1327.41 309.542 1328.91 310.06 1329.51 311.302L1325.01 313.486ZM1382.22 296.387L1380.04 297.6L1379.98 297.49L1379.93 297.373L1382.22 296.387ZM1355.95 316.588L1356.12 314.093L1356.12 314.093L1355.95 316.588ZM1368.74 299.894L1370.39 298.014L1368.74 299.894ZM1359.37 303.944C1360.64 304.492 1361.22 305.964 1360.67 307.231C1360.12 308.498 1358.65 309.081 1357.39 308.532L1359.37 303.944ZM1329.51 311.302C1331.96 316.347 1336.88 323.311 1343.56 327.774C1350.12 332.157 1358.28 334.11 1367.77 329.551L1369.93 334.057C1358.56 339.526 1348.51 337.099 1340.78 331.931C1333.17 326.844 1327.73 319.089 1325.01 313.486L1329.51 311.302ZM1367.77 329.551C1377.55 324.846 1381.39 318.521 1382.49 312.728C1383.62 306.776 1381.94 301.022 1380.04 297.6L1384.41 295.173C1386.74 299.379 1388.8 306.32 1387.4 313.662C1385.98 321.164 1381.01 328.734 1369.93 334.057L1367.77 329.551ZM1379.93 297.373C1378.71 294.552 1375.81 290.538 1371.55 288.554C1367.52 286.678 1361.83 286.397 1354.32 291.778L1351.41 287.714C1360.15 281.446 1367.76 281.271 1373.66 284.021C1379.33 286.663 1382.97 291.793 1384.52 295.4L1379.93 297.373ZM1354.32 291.778C1346.92 297.075 1345.65 302.62 1346.71 306.534C1347.82 310.655 1351.66 313.793 1356.12 314.093L1355.79 319.082C1349.26 318.643 1343.56 314.087 1341.88 307.835C1340.14 301.377 1342.81 293.87 1351.41 287.714L1354.32 291.778ZM1356.12 314.093C1357.56 314.19 1359.61 313.878 1361.78 313.132C1363.93 312.391 1365.99 311.297 1367.49 310.012C1369.01 308.705 1369.7 307.438 1369.77 306.342C1369.82 305.332 1369.39 303.786 1367.1 301.774L1370.39 298.014C1373.39 300.643 1374.94 303.567 1374.76 306.635C1374.58 309.618 1372.81 312.038 1370.74 313.808C1368.66 315.599 1366 316.969 1363.4 317.861C1360.82 318.747 1358.08 319.237 1355.79 319.082L1356.12 314.093ZM1367.1 301.774C1364.72 299.692 1362.97 299.156 1361.88 299.144C1360.85 299.132 1360.09 299.574 1359.55 300.264C1358.96 301.009 1358.69 301.984 1358.75 302.779C1358.8 303.542 1359.1 303.828 1359.37 303.944L1357.39 308.532C1354.98 307.49 1353.92 305.243 1353.76 303.149C1353.61 301.087 1354.27 298.88 1355.62 297.169C1357.01 295.403 1359.19 294.113 1361.93 294.144C1364.62 294.174 1367.47 295.456 1370.39 298.014L1367.1 301.774Z" fill="#FFCBC9"/>
<path d="M1330.56 842.515L1324.82 840.122L1331 825.983C1334.17 827.302 1335.63 830.922 1334.26 834.082L1330.56 842.515V842.515ZM1319.65 843.893C1317.83 845.805 1314.42 846.347 1311.19 845.003C1307.31 843.388 1305.19 839.684 1306.49 836.72C1307.77 833.777 1311.97 832.688 1315.86 834.298C1319.09 835.642 1321.06 838.426 1320.9 841.03L1340.72 849.283L1339.48 852.126L1325.5 846.328L1319.44 860.199L1316.58 859.007L1322.64 845.136L1319.65 843.893V843.893Z" fill="#FFCBC9"/>
<path d="M1222.24 564.117C1221.62 567.278 1222.51 570.756 1224.8 573.637L1226.13 575.323L1225.25 576.848L1230.75 580.02L1231.63 578.496L1233.77 578.816C1237.41 579.362 1240.87 578.389 1243.29 576.275L1222.24 564.117ZM1228.54 545.777L1251.69 562.786L1245.33 573.79L1248.08 575.376C1245.16 580.445 1239.25 582.84 1233.3 581.95L1231.91 584.354L1220.92 578.009L1222.31 575.605C1218.56 570.896 1217.68 564.583 1220.61 559.514L1236.41 568.634L1239.58 563.14L1223.78 554.019L1224.97 551.958L1240.77 561.079L1242.13 558.716L1227.34 547.851L1228.54 545.777ZM1244.2 563.062L1245.34 561.084L1244.06 560.139L1242.83 562.269L1244.2 563.062ZM1247.64 565.045L1248.56 563.451L1247.27 562.507L1246.26 564.251L1247.64 565.045ZM1239.84 570.617L1243.01 565.122L1241.64 564.329L1238.47 569.824L1239.84 570.617ZM1243.27 572.6L1246.45 567.105L1245.07 566.312L1241.9 571.807L1243.27 572.6Z" fill="#FFCBC9"/>
</svg>
